<?xml version="1.0" encoding="UTF-8" standalone="no"?>
<!-- Creator: CorelDRAW X7 -->

<svg
   xmlns:dc="http://purl.org/dc/elements/1.1/"
   xmlns:cc="http://creativecommons.org/ns#"
   xmlns:rdf="http://www.w3.org/1999/02/22-rdf-syntax-ns#"
   xmlns:svg="http://www.w3.org/2000/svg"
   xmlns="http://www.w3.org/2000/svg"
   xmlns:xlink="http://www.w3.org/1999/xlink"
   xmlns:sodipodi="http://sodipodi.sourceforge.net/DTD/sodipodi-0.dtd"
   xmlns:inkscape="http://www.inkscape.org/namespaces/inkscape"
   xml:space="preserve"
   width="210mm"
   height="297mm"
   version="1.0"
   style="shape-rendering:geometricPrecision; text-rendering:geometricPrecision; image-rendering:optimizeQuality; fill-rule:evenodd; clip-rule:evenodd"
   viewBox="0 0 21000 29700"
   id="svg4101"
   inkscape:version="0.48+devel r13280"
   sodipodi:docname="Slimy.svg"><metadata
   id="metadata4153"><rdf:RDF><cc:Work
       rdf:about=""><dc:format>image/svg+xml</dc:format><dc:type
         rdf:resource="http://purl.org/dc/dcmitype/StillImage" /><dc:title></dc:title></cc:Work></rdf:RDF></metadata><sodipodi:namedview
   pagecolor="#ffffff"
   bordercolor="#666666"
   borderopacity="1"
   objecttolerance="10"
   gridtolerance="10"
   guidetolerance="10"
   inkscape:pageopacity="0"
   inkscape:pageshadow="2"
   inkscape:window-width="1366"
   inkscape:window-height="705"
   id="namedview4151"
   showgrid="false"
   showborder="false"
   inkscape:zoom="0.35708892"
   inkscape:cx="-150.16902"
   inkscape:cy="339.84637"
   inkscape:window-x="-8"
   inkscape:window-y="-8"
   inkscape:window-maximized="1"
   inkscape:current-layer="svg4101" />
 <defs
   id="defs4103"><linearGradient
   inkscape:collect="always"
   id="linearGradient4255"><stop
     style="stop-color:#53536b;stop-opacity:1"
     offset="0"
     id="stop4257" /><stop
     style="stop-color:#6f7b90;stop-opacity:1"
     offset="1"
     id="stop4259" /></linearGradient>
  <style
   type="text/css"
   id="style4105">
   <![CDATA[
    .str0 {stroke:#2B2A29;stroke-width:20}
    .fil3 {fill:#FEFEFE}
    .fil1 {fill:#EBECEC}
    .fil6 {fill:#B7CBD8}
    .fil5 {fill:#4E565A}
    .fil0 {fill:#5B7674}
    .fil4 {fill:#5E5971}
    .fil2 {fill:#1C1B17}
   ]]>
  </style>
 
  
  
  
  
  
  
  
  
  
  
  
  
  
  
  
  
  
  
  
  
  
  
 <linearGradient
   inkscape:collect="always"
   xlink:href="#linearGradient4255"
   id="linearGradient4261"
   x1="4388"
   y1="13370.264"
   x2="16771"
   y2="13370.264"
   gradientUnits="userSpaceOnUse"
   gradientTransform="matrix(0.99848494,0.05502572,-0.05502572,0.99848494,647.94651,-517.6123)" /><linearGradient
   inkscape:collect="always"
   xlink:href="#linearGradient4255"
   id="linearGradient4269"
   x1="8627.7559"
   y1="5868.0938"
   x2="10254.837"
   y2="4241.0298"
   gradientUnits="userSpaceOnUse"
   gradientTransform="matrix(0.99848494,0.05502572,-0.05502572,0.99848494,647.94651,-517.6123)" /><linearGradient
   inkscape:collect="always"
   xlink:href="#linearGradient4255"
   id="linearGradient4277"
   x1="3703.4753"
   y1="8021.6328"
   x2="5547.5601"
   y2="6859.5161"
   gradientUnits="userSpaceOnUse"
   gradientTransform="matrix(0.9710382,-0.23892426,0.23892426,0.9710382,-77.118501,324.40593)" /><linearGradient
   inkscape:collect="always"
   xlink:href="#linearGradient4255"
   id="linearGradient4285"
   x1="3649.0469"
   y1="-2533.9839"
   x2="8252.4551"
   y2="-2533.9839"
   gradientUnits="userSpaceOnUse"
   gradientTransform="matrix(0.99848494,0.05502572,-0.05502572,0.99848494,647.94651,-517.6123)" /><linearGradient
   inkscape:collect="always"
   xlink:href="#linearGradient4255"
   id="linearGradient4293"
   x1="-3831.835"
   y1="584.14105"
   x2="729.34003"
   y2="584.14105"
   gradientUnits="userSpaceOnUse"
   gradientTransform="matrix(0.9710382,-0.23892426,0.23892426,0.9710382,-77.118501,324.40593)" /></defs>
 
<g
   id="g4525"
   transform="matrix(0.59138588,0,0,0.59138588,2676.798,3901.9109)"
   inkscape:export-xdpi="90"
   inkscape:export-ydpi="90"><path
     class="fil0"
     d="m 9422.29,19415.598 c 1396.879,76.981 2694.672,-501.412 3656.855,-1495.946 2049.947,-124.334 3509.083,-849.901 3659.138,-3572.767 211.956,-3846.116 -2384,-7116.8913 -5798.819,-7305.0793 -3413.8187,-188.1328 -6353.4629,2777.5795 -6565.4193,6623.6953 -89.4457,1623.062 342.9609,2590.765 1128.6534,3181.36 824.3433,1470.323 2251.1236,2476.789 3919.5919,2568.737 z M 9282.1751,11453.91 c 4667.5589,-935.709 4797.6099,2247.273 4209.6279,4229.817 -587.981,1982.545 -2017.639,1137.329 -3702.0818,1044.501 -1684.4442,-92.828 -3007.194,1701.71 -3705.028,-828.441 -697.8925,-2529.086 -1470.0189,-3511.234 3197.4819,-4445.877 z"
     id="path4143-2"
     inkscape:connector-curvature="0"
     style="fill:#b7bec8;fill-opacity:1;fill-rule:evenodd;clip-rule:evenodd;image-rendering:optimizeQuality;shape-rendering:geometricPrecision;text-rendering:geometricPrecision" /><path
     inkscape:transform-center-y="-157.3777"
     inkscape:transform-center-x="184.34443"
     class="fil0"
     d="M -264.29887,2503.2304 C -2871.2808,1446.4967 6139.9632,3724.4662 8239.5673,7385.8601 10339.171,11047.256 9855.1958,11729.653 9288.1095,11869.185 8720.0521,12008.956 8153.8158,11398.565 7830.9829,9642.8486 7508.1499,7887.1313 6512.1612,5249.713 -264.29887,2503.2304 Z"
     id="path4109-8"
     inkscape:connector-curvature="0"
     style="fill:#373e48;fill-opacity:1;fill-rule:evenodd;clip-rule:evenodd;image-rendering:optimizeQuality;shape-rendering:geometricPrecision;text-rendering:geometricPrecision" /><path
     inkscape:transform-center-y="-4482.0065"
     inkscape:transform-center-x="5038.1801"
     class="fil0"
     d="M 69.463614,2406.3283 C -2537.5186,1349.5947 6473.7253,3627.564 8573.3294,7288.958 10672.933,10950.354 10188.957,11632.751 9621.8713,11772.283 9053.8144,11912.053 8487.5782,11301.663 8164.745,9545.9459 7841.9121,7790.2293 6845.9234,5152.8109 69.463614,2406.3283 Z"
     id="path4109-1"
     inkscape:connector-curvature="0"
     style="fill:#b7bec8;fill-opacity:1;fill-rule:evenodd;clip-rule:evenodd;image-rendering:optimizeQuality;shape-rendering:geometricPrecision;text-rendering:geometricPrecision" /><path
     inkscape:transform-center-y="-158.81125"
     inkscape:transform-center-x="178.51819"
     class="fil0"
     d="M -99.869729,2462.7726 C -2706.8518,1406.039 6304.3921,3684.0083 8403.9963,7345.4024 10503.601,11006.798 10019.625,11689.195 9452.5385,11828.727 8884.4812,11968.497 8318.2449,11358.107 7995.4119,9602.3902 7672.579,7846.6735 6676.5901,5209.2551 -99.869729,2462.7726 Z"
     id="path4109"
     inkscape:connector-curvature="0"
     style="fill:url(#linearGradient4277);fill-opacity:1" /><path
     inkscape:transform-center-y="-331.95377"
     inkscape:transform-center-x="387.20078"
     class="fil0"
     d="M -2290.1369,230.31345 C -1185.225,-397.87008 197.16774,-53.174236 796.43481,1001.1822 1396.4342,2054.3287 986.56274,3418.7739 -118.11039,4047.9282 -1223.0221,4676.112 -2605.415,4331.416 -3204.4432,3278.0307 -3804.6815,2223.913 -3394.8098,859.4681 -2290.1369,230.31345 Z"
     id="path4111-1"
     inkscape:connector-curvature="0"
     style="fill:#373e48;fill-opacity:1;fill-rule:evenodd;clip-rule:evenodd;image-rendering:optimizeQuality;shape-rendering:geometricPrecision;text-rendering:geometricPrecision" /><path
     inkscape:transform-center-y="-336.31577"
     inkscape:transform-center-x="386.21439"
     class="fil0"
     d="M -2262.299,107.20814 C -1157.387,-520.97548 225.00568,-176.27961 824.27285,878.07684 1424.2721,1931.2235 1014.4006,3295.6686 -90.272364,3924.8231 -1195.1843,4553.0068 -2577.5771,4208.3109 -3176.6053,3154.9254 -3776.8436,2100.8077 -3366.972,736.36268 -2262.299,107.20814 Z"
     id="path4111"
     inkscape:connector-curvature="0"
     style="fill:#5b7674" /><path
     inkscape:transform-center-y="-343.69957"
     inkscape:transform-center-x="390.42365"
     class="fil1"
     d="M -2381.579,-101.33268 C -1275.696,-729.75524 105.72561,-384.82043 705.96389,669.29709 1304.9921,1722.6827 896.0916,3086.8888 -208.58135,3716.0434 -1313.2543,4345.1981 -2695.6471,4000.5022 -3295.8853,2946.3846 -3895.1525,1892.028 -3486.252,527.82186 -2381.579,-101.33268 Z"
     id="path4113"
     inkscape:connector-curvature="0"
     style="fill:#b7bec8" /><ellipse
     ry="688.02179"
     rx="856.38678"
     inkscape:transform-center-y="-331.04417"
     inkscape:transform-center-x="380.28695"
     class="fil2 str0"
     transform="matrix(0.97307656,-0.2304821,0.22583646,0.97416523,0,0)"
     id="circle4131-1-8"
     cx="-1471.8051"
     cy="1874.0002"
     style="fill:#dbdee3;fill-opacity:1;fill-rule:evenodd;stroke:none;clip-rule:evenodd;image-rendering:optimizeQuality;shape-rendering:geometricPrecision;text-rendering:geometricPrecision"
     d="m -615.41827,1874.0002 a 856.38678,688.02179 0 0 1 -856.38683,688.0218 856.38678,688.02179 0 0 1 -856.3867,-688.0218 856.38678,688.02179 0 0 1 856.3867,-688.0217 856.38678,688.02179 0 0 1 856.38683,688.0217 z" /><circle
     inkscape:transform-center-y="-335.4321"
     inkscape:transform-center-x="380.31854"
     class="fil2 str0"
     transform="matrix(0.86912199,-0.49459779,0.49459779,0.86912199,0,0)"
     r="687.99994"
     id="circle4115"
     cx="-1887.1451"
     cy="1274.3845"
     style="fill:#1c1b17;stroke:#2b2a29;stroke-width:20"
     d="m -1199.1452,1274.3845 a 687.99994,687.99994 0 0 1 -687.9999,688 687.99994,687.99994 0 0 1 -688,-688 687.99994,687.99994 0 0 1 688,-687.99992 687.99994,687.99994 0 0 1 687.9999,687.99992 z" /><circle
     inkscape:transform-center-y="-342.91906"
     inkscape:transform-center-x="380.34094"
     class="fil3 str0"
     transform="matrix(0.86912246,-0.49459695,0.49459695,0.86912246,0,0)"
     r="343.99988"
     id="circle4117"
     cx="-1783.187"
     cy="1090.4286"
     style="fill:#fefefe;stroke:#2b2a29;stroke-width:9.99999619"
     d="m -1439.1871,1090.4286 a 343.99988,343.99988 0 0 1 -343.9999,343.9999 343.99988,343.99988 0 0 1 -343.9999,-343.9999 343.99988,343.99988 0 0 1 343.9999,-343.99989 343.99988,343.99988 0 0 1 343.9999,343.99989 z" /><path
     inkscape:transform-center-y="-353.53273"
     inkscape:transform-center-x="391.12639"
     class="fil4"
     d="M -2331.4532,-14.802978 C -1226.5412,-642.9865 154.88037,-298.05169 755.11862,756.06582 1355.3568,1810.1835 -141.01351,1265.9404 -1245.9254,1894.1241 -2350.5985,2523.2787 -2646.4924,4087.2709 -3245.7596,3032.9143 -3845.9978,1978.7967 -3436.1262,614.35167 -2331.4532,-14.802978 Z"
     id="path4119"
     inkscape:connector-curvature="0"
     style="fill:#5e5971" /><path
     inkscape:transform-center-y="-356.60413"
     inkscape:transform-center-x="392.88487"
     class="fil0"
     d="M -2381.579,-101.33268 C -1275.696,-729.75524 105.72561,-384.82043 705.96389,669.29709 1304.9921,1722.6827 -190.16828,1179.1718 -1295.0802,1807.3553 -2399.7531,2436.5099 -2695.6471,4000.5022 -3295.8853,2946.3846 -3895.1525,1892.028 -3486.252,527.82186 -2381.579,-101.33268 Z"
     id="path4121"
     inkscape:connector-curvature="0"
     style="fill:url(#linearGradient4293);fill-opacity:1" /><path
     inkscape:transform-center-y="-6290.6657"
     inkscape:transform-center-x="619.59997"
     class="fil0"
     d="M 7263.2529,-553.61636 C 5729.2185,-3184.5422 12152.929,4943.5044 11098.121,9034.8984 10042.511,13125.13 9042.4952,13253.371 8406.9749,12939.536 7771.2728,12626.685 7748.3476,11788.533 8882.9561,10322.456 10016.584,8856.1891 11252.069,6284.0035 7263.2529,-553.61636 Z"
     id="path4123-6"
     inkscape:connector-curvature="0"
     style="fill:#373e48;fill-opacity:1;fill-rule:evenodd;clip-rule:evenodd;image-rendering:optimizeQuality;shape-rendering:geometricPrecision;text-rendering:geometricPrecision" /><path
     inkscape:transform-center-y="-6347.0907"
     inkscape:transform-center-x="487.23624"
     class="fil0"
     d="M 7601.6627,-544.2986 C 6067.6284,-3175.2245 12491.337,4952.822 11436.529,9044.2158 10380.919,13134.448 9380.9051,13262.688 8745.3848,12948.854 8109.6828,12636.003 8086.7576,11797.851 9221.3661,10331.774 10354.993,8865.5066 11590.476,6293.3211 7601.6627,-544.2986 Z"
     id="path4123-9"
     inkscape:connector-curvature="0"
     style="fill:#b7bec8;fill-opacity:1;fill-rule:evenodd;clip-rule:evenodd;image-rendering:optimizeQuality;shape-rendering:geometricPrecision;text-rendering:geometricPrecision" /><path
     inkscape:transform-center-y="-224.89691"
     inkscape:transform-center-x="17.264276"
     class="fil0"
     d="M 7432.3294,-544.29817 C 5898.2951,-3175.2241 12322.005,4952.8225 11267.197,9044.2164 10211.587,13134.448 9211.5718,13262.688 8576.0515,12948.854 7940.3495,12636.003 7917.4243,11797.851 9052.0328,10331.774 10185.661,8865.5072 11421.144,6293.3215 7432.3294,-544.29817 Z"
     id="path4123"
     inkscape:connector-curvature="0"
     style="fill:url(#linearGradient4269);fill-opacity:1" /><path
     class="fil5"
     d="m 9269.3419,11125.426 c 5264.5761,-937.734 5428.5051,2339.252 4776.3641,4377.455 -653.14,2038.148 -2272.312,1160.723 -4174.4263,1055.899 -1902.1138,-104.824 -3385.5623,1734.335 -4187.2663,-873.731 -801.7039,-2608.066 -1678.1936,-3622.833 3585.3285,-4559.623 z"
     id="path4125"
     inkscape:connector-curvature="0"
     style="fill:#1a1a1a" /><ellipse
     transform="matrix(0.97069643,-0.24030905,0.21896822,0.97573199,0,0)"
     ry="2465.6848"
     rx="3190.0225"
     cy="15231.937"
     cx="7239.9971"
     id="path4356"
     style="color:#000000;color-interpolation:sRGB;color-interpolation-filters:linearRGB;fill:#1c1f24;fill-opacity:1;fill-rule:nonzero;stroke:none;stroke-width:3;paint-order:normal;marker:none;visibility:visible;display:inline;overflow:visible;isolation:auto;mix-blend-mode:normal;enable-background:accumulate;clip-rule:nonzero;color-rendering:auto;image-rendering:auto;shape-rendering:auto;text-rendering:auto"
     d="M 10430.02,15231.937 A 3190.0225,2465.6848 0 0 1 7239.9971,17697.621 3190.0225,2465.6848 0 0 1 4049.9746,15231.937 3190.0225,2465.6848 0 0 1 7239.9971,12766.252 3190.0225,2465.6848 0 0 1 10430.02,15231.937 Z" /><path
     sodipodi:nodetypes="ccaac"
     class="fil1"
     d="m 6345.2323,11773.839 1152.2563,-300.051 c 150.3046,580.15 756.7219,1224.398 452.8557,1741.558 -201.0122,342.109 -810.0753,500.035 -1152.2013,299.052 -516.9116,-303.661 -452.9107,-1740.559 -452.9107,-1740.559 z"
     id="path4139"
     inkscape:connector-curvature="0"
     style="fill:#b7bec8" /><path
     inkscape:transform-center-y="-14009.987"
     inkscape:transform-center-x="3108.5736"
     class="fil0"
     d="m 6750.6627,-3745.5311 c 1268.0495,83.0395 2232.3449,1131.9393 2151.8074,2342.4834 C 8822.9156,-192.31973 7729.7202,720.05291 6461.6708,637.01347 5192.8199,552.80887 4229.5082,-495.91022 4308.8811,-1705.655 c 79.5545,-1210.7266 1172.9308,-2124.0809 2441.7816,-2039.8761 z"
     id="path4127-1"
     inkscape:connector-curvature="0"
     style="fill:#373e48;fill-opacity:1;fill-rule:evenodd;clip-rule:evenodd;image-rendering:optimizeQuality;shape-rendering:geometricPrecision;text-rendering:geometricPrecision" /><path
     inkscape:transform-center-y="-496.41787"
     inkscape:transform-center-x="110.14442"
     class="fil0"
     d="m 6813.2332,-3855.1417 c 1268.0495,83.0395 2232.345,1131.9393 2151.8075,2342.4834 C 8885.486,-301.93038 7792.2907,610.44232 6524.2413,527.40285 5255.3904,443.19817 4292.0787,-605.52069 4371.4516,-1815.2655 c 79.5545,-1210.7267 1172.9308,-2124.081 2441.7816,-2039.8762 z"
     id="path4127"
     inkscape:connector-curvature="0"
     style="fill:#5b7674" /><path
     inkscape:transform-center-y="-504.92139"
     inkscape:transform-center-x="109.58319"
     class="fil1"
     d="m 6829.1737,-4095.2477 c 1267.8676,84.0228 2232.1633,1132.9227 2151.6252,2343.4668 C 8901.4262,-542.0366 7808.0493,371.3195 6540.1817,287.29678 5271.149,204.07546 4307.8373,-844.64359 4387.392,-2055.3716 c 79.3725,-1209.7431 1172.749,-2123.0975 2441.7817,-2039.8761 z"
     id="path4129"
     inkscape:connector-curvature="0"
     style="fill:#b7bec8" /><ellipse
     ry="688.02179"
     rx="856.38684"
     inkscape:transform-center-y="-393648.11"
     inkscape:transform-center-x="110017.06"
     class="fil2 str0"
     transform="matrix(0.9979694,0.06369515,-0.06845623,0.99765412,0,0)"
     id="circle4131-1"
     cx="6643.2461"
     cy="-1868.1038"
     style="fill:#dbdee3;fill-opacity:1;fill-rule:evenodd;stroke:none;clip-rule:evenodd;image-rendering:optimizeQuality;shape-rendering:geometricPrecision;text-rendering:geometricPrecision"
     d="m 7499.6329,-1868.1038 a 856.38684,688.02179 0 0 1 -856.3868,688.0218 856.38684,688.02179 0 0 1 -856.3868,-688.0218 856.38684,688.02179 0 0 1 856.3868,-688.0217 856.38684,688.02179 0 0 1 856.3868,688.0217 z" /><circle
     inkscape:transform-center-y="-13897.74"
     inkscape:transform-center-x="2983.3111"
     class="fil2 str0"
     transform="matrix(0.99783175,0.06581636,-0.06581636,0.99783175,0,0)"
     r="687.99976"
     id="circle4131"
     cx="6676.6694"
     cy="-1995.4222"
     style="fill:#1c1b17;fill-opacity:1;fill-rule:evenodd;stroke:#2b2a29;stroke-width:20.00000191;clip-rule:evenodd;image-rendering:optimizeQuality;shape-rendering:geometricPrecision;text-rendering:geometricPrecision"
     d="m 7364.6692,-1995.4222 a 687.99976,687.99976 0 0 1 -687.9998,687.9997 687.99976,687.99976 0 0 1 -687.9997,-687.9997 687.99976,687.99976 0 0 1 687.9997,-687.9998 687.99976,687.99976 0 0 1 687.9998,687.9998 z" /><circle
     inkscape:transform-center-y="-498.70118"
     inkscape:transform-center-x="101.60306"
     class="fil3 str0"
     transform="matrix(0.99783174,0.06581648,-0.06581648,0.99783174,0,0)"
     r="344.00021"
     id="circle4133"
     cx="6780.6343"
     cy="-2179.3792"
     style="fill:#fefefe;stroke:#2b2a29;stroke-width:10.00000668"
     d="m 7124.6345,-2179.3792 a 344.00021,344.00021 0 0 1 -344.0002,344.0003 344.00021,344.00021 0 0 1 -344.0002,-344.0003 344.00021,344.00021 0 0 1 344.0002,-344.0002 344.00021,344.00021 0 0 1 344.0002,344.0002 z" /><path
     inkscape:transform-center-y="-528.42257"
     inkscape:transform-center-x="109.79979"
     class="fil4"
     d="m 6821.8006,-3994.9151 c 1269.0327,83.2214 2232.3447,1131.9393 2152.7901,2342.6654 -80.5375,1210.54582 -1028.7447,-68.2643 -2296.7941,-151.304 -1268.851,-84.2045 -2377.1507,1058.25951 -2296.7945,-151.3034 79.5546,-1210.7265 1172.9309,-2124.0807 2440.7985,-2040.058 z"
     id="path4135"
     inkscape:connector-curvature="0"
     style="fill:#5e5971" /><path
     inkscape:transform-center-y="-531.96791"
     inkscape:transform-center-x="109.57337"
     class="fil0"
     d="m 6829.1737,-4095.2477 c 1267.8676,84.0228 2232.1633,1132.9227 2151.6252,2343.4668 -79.3727,1209.7443 -1027.7616,-68.0823 -2296.6125,-152.2871 -1269.0328,-83.2215 -2376.3491,1059.42441 -2296.7944,-151.3036 79.3725,-1209.7431 1172.749,-2123.0975 2441.7817,-2039.8761 z"
     id="path4137"
     inkscape:connector-curvature="0"
     style="fill:url(#linearGradient4285);fill-opacity:1" /><path
     class="fil6"
     d="m 9361.8228,19006.455 c 1396.8802,76.981 2692.4212,-460.545 3650.9732,-1389.207 2049.125,-109.411 3505.468,-784.298 3646.059,-3335.427 198.587,-3603.532 -2408.208,-6677.6299 -5823.026,-6865.8179 -3413.8201,-188.1329 -6342.6256,2580.9028 -6541.2134,6184.4349 -83.8041,1520.693 351.8733,2429.042 1139.4624,2985.223 829.2811,1380.723 2259.2765,2328.846 3927.7448,2420.794 z m -167.6779,-7461.531 c 4663.4261,-860.696 4804.4821,2122.586 4223.4831,3978.428 -580.999,1855.841 -2013.313,1058.82 -3697.7569,965.991 -1684.4441,-92.828 -3000.7226,1584.284 -3707.191,-789.186 -706.5235,-2372.471 -1481.906,-3295.536 3181.4648,-4155.233 z"
     id="path4141"
     inkscape:connector-curvature="0"
     style="fill:#6f7c91" /><path
     sodipodi:nodetypes="ccaac"
     class="fil1"
     d="m 9939.2734,11289.659 1189.9236,-42.346 c 20.569,598.95 472.401,1359.634 63.362,1798.355 -270.584,290.22 -899.41,311.945 -1189.651,41.384 -438.5201,-408.785 -63.6346,-1797.393 -63.6346,-1797.393 z"
     id="path4139-0"
     inkscape:connector-curvature="0"
     style="fill:#b7bec8;fill-rule:evenodd;clip-rule:evenodd;image-rendering:optimizeQuality;shape-rendering:geometricPrecision;text-rendering:geometricPrecision" /><path
     sodipodi:nodetypes="ccaac"
     class="fil1"
     d="m 9922.5729,11288.739 981.0451,-53.858 c 11.146,598.431 376.134,1354.329 34.787,1796.781 -225.807,292.688 -744.241,320.496 -980.8118,52.893 -357.4289,-404.317 -35.0203,-1795.816 -35.0203,-1795.816 z"
     id="path4139-0-1"
     inkscape:connector-curvature="0"
     style="fill:#dbdee3;fill-rule:evenodd;clip-rule:evenodd;image-rendering:optimizeQuality;shape-rendering:geometricPrecision;text-rendering:geometricPrecision" /><path
     sodipodi:nodetypes="ccaac"
     class="fil1"
     d="m 6345.2324,11773.839 934.6597,-312.042 c 115.3816,578.225 598.8111,1215.695 347.7032,1735.762 -166.1117,344.033 -660.1498,508.298 -934.6047,311.044 -414.6685,-298.027 -347.7582,-1734.764 -347.7582,-1734.764 z"
     id="path4139-5"
     inkscape:connector-curvature="0"
     style="fill:#dbdee3;fill-rule:evenodd;clip-rule:evenodd;image-rendering:optimizeQuality;shape-rendering:geometricPrecision;text-rendering:geometricPrecision" /><path
     class="fil0"
     d="m 9177.4585,19755.131 c 1396.8805,76.981 2694.3895,-496.252 3656.1135,-1482.468 2049.844,-122.45 3508.627,-841.618 3657.487,-3542.799 210.268,-3815.485 -2387.057,-7061.4227 -5801.876,-7249.6107 -3413.8204,-188.133 -6352.0958,2752.7417 -6562.3642,6568.2277 -88.7333,1610.136 344.0863,2570.344 1130.0183,3156.593 824.9667,1459.01 2252.153,2458.109 3920.6214,2550.057 z m -143.5953,-7898.534 c 4667.0388,-926.237 4798.4788,2231.529 4211.3788,4198.075 -587.1,1966.546 -2017.092,1127.415 -3701.5372,1034.587 -1684.4441,-92.829 -3006.3769,1686.883 -3705.3011,-823.484 -698.9823,-2509.311 -1471.5199,-3483.998 3195.4595,-4409.178 z"
     inkscape:connector-curvature="0"
     style="fill:#373e48;fill-opacity:1;fill-rule:evenodd;clip-rule:evenodd;image-rendering:optimizeQuality;shape-rendering:geometricPrecision;text-rendering:geometricPrecision"
     id="path4557" /><path
     class="fil0"
     d="m 9300.2544,19578.462 c 1396.8806,76.981 2694.6736,-501.412 3656.8556,-1495.946 2049.948,-124.334 3509.083,-849.901 3659.138,-3572.768 211.957,-3846.116 -2384,-7116.8895 -5798.818,-7305.0775 -3413.8202,-188.1329 -6353.4644,2777.5783 -6565.4208,6623.6945 -89.4456,1623.062 342.9609,2590.765 1128.6534,3181.36 824.3434,1470.323 2251.1235,2476.789 3919.5918,2568.737 z m -140.1147,-7961.688 c 4667.5593,-935.709 4797.6113,2247.272 4209.6293,4229.817 -587.982,1982.544 -2017.639,1137.329 -3702.0834,1044.501 -1684.4441,-92.829 -3007.1939,1701.71 -3705.0278,-828.441 -697.8926,-2529.086 -1470.019,-3511.234 3197.4819,-4445.877 z"
     id="path4143"
     inkscape:connector-curvature="0"
     style="fill:url(#linearGradient4261);fill-opacity:1" /><ellipse
     class="fil4"
     transform="matrix(0.80583649,0.59213812,-0.59213812,0.80583649,0,0)"
     rx="846.99957"
     ry="528.99976"
     id="ellipse4145"
     cx="16848.781"
     cy="-358.0368"
     style="fill:#5e5971"
     d="m 17695.781,-358.0368 a 846.99957,528.99976 0 0 1 -847,528.99975 846.99957,528.99976 0 0 1 -846.999,-528.99975 846.99957,528.99976 0 0 1 846.999,-528.99976 846.99957,528.99976 0 0 1 847,528.99976 z" /><ellipse
     class="fil4"
     transform="matrix(0.8058361,0.59213864,-0.59213864,0.8058361,0,0)"
     rx="564.20227"
     ry="352.37662"
     id="ellipse4147"
     cx="14860.302"
     cy="64.240486"
     style="fill:#5e5971"
     d="M 15424.504,64.240486 A 564.20227,352.37662 0 0 1 14860.302,416.6171 564.20227,352.37662 0 0 1 14296.099,64.240486 564.20227,352.37662 0 0 1 14860.302,-288.13613 564.20227,352.37662 0 0 1 15424.504,64.240486 Z" /><ellipse
     class="fil4"
     transform="matrix(0.86602321,-0.5000038,-0.5000038,-0.86602321,0,0)"
     rx="564.20227"
     ry="352.37662"
     id="ellipse4149"
     cx="6724.6899"
     cy="-16869.424"
     style="fill:#5e5971"
     d="m 7288.8922,-16869.424 a 564.20227,352.37662 0 0 1 -564.2023,352.377 564.20227,352.37662 0 0 1 -564.2022,-352.377 564.20227,352.37662 0 0 1 564.2022,-352.376 564.20227,352.37662 0 0 1 564.2023,352.376 z" /><ellipse
     transform="matrix(0.78243412,-0.62273337,0.68364784,0.72981205,0,0)"
     ry="265.38077"
     rx="530.63519"
     cy="4411.8862"
     cx="6217.7637"
     id="path4295"
     style="color:#000000;color-interpolation:sRGB;color-interpolation-filters:linearRGB;fill:#dbdee3;fill-opacity:1;fill-rule:nonzero;stroke:none;stroke-width:3;paint-order:normal;marker:none;visibility:visible;display:inline;overflow:visible;isolation:auto;mix-blend-mode:normal;enable-background:accumulate;clip-rule:nonzero;color-rendering:auto;image-rendering:auto;shape-rendering:auto;text-rendering:auto"
     d="m 6748.3989,4411.8862 a 530.63519,265.38077 0 0 1 -530.6352,265.3808 530.63519,265.38077 0 0 1 -530.6352,-265.3808 530.63519,265.38077 0 0 1 530.6352,-265.3807 530.63519,265.38077 0 0 1 530.6352,265.3807 z" /><ellipse
     transform="matrix(0.99848494,0.05502572,-0.05502572,0.99848494,0,0)"
     ry="168.1132"
     rx="210.14151"
     cy="-552.48181"
     cx="6908.7188"
     id="path4297"
     style="color:#000000;color-interpolation:sRGB;color-interpolation-filters:linearRGB;fill:#dbdee3;fill-opacity:1;fill-rule:nonzero;stroke:none;stroke-width:3;paint-order:normal;marker:none;visibility:visible;display:inline;overflow:visible;isolation:auto;mix-blend-mode:normal;enable-background:accumulate;clip-rule:nonzero;color-rendering:auto;image-rendering:auto;shape-rendering:auto;text-rendering:auto"
     d="m 7118.8603,-552.48181 a 210.14151,168.1132 0 0 1 -210.1416,168.1132 210.14151,168.1132 0 0 1 -210.1415,-168.1132 210.14151,168.1132 0 0 1 210.1415,-168.11321 210.14151,168.1132 0 0 1 210.1416,168.11321 z" /><ellipse
     transform="matrix(0.97103821,-0.23892426,0.23892426,0.97103821,0,0)"
     inkscape:transform-center-y="-329.76937"
     inkscape:transform-center-x="333.05366"
     ry="336.22641"
     rx="350.23584"
     cy="2214.4775"
     cx="-211.14062"
     id="path4297-2"
     style="color:#000000;color-interpolation:sRGB;color-interpolation-filters:linearRGB;fill:#dbdee3;fill-opacity:1;fill-rule:nonzero;stroke:none;stroke-width:3;paint-order:normal;marker:none;visibility:visible;display:inline;overflow:visible;isolation:auto;mix-blend-mode:normal;enable-background:accumulate;clip-rule:nonzero;color-rendering:auto;image-rendering:auto;shape-rendering:auto;text-rendering:auto"
     d="m 139.09521,2214.4775 a 350.23584,336.22641 0 0 1 -350.23583,336.2264 350.23584,336.22641 0 0 1 -350.23584,-336.2264 350.23584,336.22641 0 0 1 350.23583,-336.2264 350.23584,336.22641 0 0 1 350.23584,336.2264 z" /></g></svg>